<svg width="380" height="77" viewBox="0 0 380 77" fill="none" xmlns="http://www.w3.org/2000/svg">
<path d="M181 65.4167C181 59.6637 185.664 55 191.417 55H369.583C375.336 55 380 59.6637 380 65.4167V65.4167C380 71.1696 375.336 75.8333 369.583 75.8333H191.417C185.664 75.8333 181 71.1696 181 65.4167V65.4167Z" fill="#CE383A"/>
<path d="M181 65.4167C181 59.6637 185.664 55 191.417 55H343.05C348.803 55 353.467 59.6637 353.467 65.4167V65.4167C353.467 71.1696 348.803 75.8333 343.05 75.8333H191.417C185.664 75.8333 181 71.1696 181 65.4167V65.4167Z" fill="#013E7D"/>
<path d="M181 65.4167C181 59.6637 185.664 55 191.417 55H316.517C322.27 55 326.933 59.6637 326.933 65.4167V65.4167C326.933 71.1696 322.27 75.8333 316.517 75.8333H191.417C185.664 75.8333 181 71.1696 181 65.4167V65.4167Z" fill="#238C2C"/>
<path d="M181 65.4167C181 59.6637 185.664 55 191.417 55H289.983C295.736 55 300.4 59.6637 300.4 65.4167V65.4167C300.4 71.1696 295.736 75.8333 289.983 75.8333H191.417C185.664 75.8333 181 71.1696 181 65.4167V65.4167Z" fill="#85CE38"/>
<path d="M181 65.4167C181 59.6637 185.664 55 191.417 55H263.45C269.203 55 273.867 59.6637 273.867 65.4167V65.4167C273.867 71.1696 269.203 75.8333 263.45 75.8333H191.417C185.664 75.8333 181 71.1696 181 65.4167V65.4167Z" fill="#394B59"/>
<path d="M68.9226 1.91695C68.9349 1.5873 69.0881 1.27411 69.3514 1.04089C69.6146 0.807663 69.9682 0.671859 70.3402 0.661011H79.2191C79.5951 0.661011 79.9556 0.793333 80.2215 1.02887C80.4874 1.2644 80.6367 1.58386 80.6367 1.91695V18.5747H101.976V1.91695C101.976 1.58386 102.125 1.2644 102.391 1.02887C102.657 0.793333 103.017 0.661011 103.393 0.661011H112.272C112.644 0.671859 112.998 0.807663 113.261 1.04089C113.524 1.27411 113.678 1.5873 113.69 1.91695V45.6767C113.678 46.0063 113.524 46.3195 113.261 46.5527C112.998 46.786 112.644 46.9218 112.272 46.9326H103.393C103.017 46.9326 102.657 46.8003 102.391 46.5648C102.125 46.3292 101.976 46.0098 101.976 45.6767V28.2918H80.6367V45.6767C80.6367 46.0098 80.4874 46.3292 80.2215 46.5648C79.9556 46.8003 79.5951 46.9326 79.2191 46.9326H70.3402C69.9682 46.9218 69.6146 46.786 69.3514 46.5527C69.0881 46.3195 68.9349 46.0063 68.9226 45.6767V1.91695Z" fill="#394B59"/>
<path d="M26.918 0.000274235C34.3792 0.000274235 39.9005 2.04945 44.9741 6.14779C45.1281 6.25822 45.2536 6.39663 45.3421 6.55368C45.4306 6.71072 45.48 6.88275 45.4871 7.05817C45.4942 7.23358 45.4587 7.4083 45.3831 7.57054C45.3075 7.73278 45.1935 7.87877 45.0487 7.99865L39.229 13.3624C39.1074 13.4722 38.9622 13.5594 38.8021 13.619C38.6419 13.6785 38.47 13.7092 38.2963 13.7092C38.1227 13.7092 37.9507 13.6785 37.7906 13.619C37.6305 13.5594 37.4853 13.4722 37.3637 13.3624C34.5809 11.1904 30.9997 9.99183 27.2911 9.99116C18.8578 9.99116 12.665 16.2048 12.665 23.6082C12.665 30.9456 18.9324 37.027 27.3742 37.027C30.881 37.027 34.6862 35.9033 37.3722 33.8541C37.8945 33.4575 38.8645 33.4575 39.3121 33.9202L45.1319 39.4067C45.6542 39.8694 45.5795 40.7287 45.0573 41.1914C39.9836 45.5542 33.567 47.6034 26.9372 47.6034C12.0148 47.6034 9.21694e-05 37.0931 9.21694e-05 23.8726C-0.00917552 20.7374 0.680548 17.6315 2.02968 14.7331C3.3788 11.8346 5.36077 9.20078 7.86181 6.98271C10.3629 4.76464 13.3337 3.00601 16.6039 1.80778C19.8741 0.609543 23.3792 -0.00471028 26.918 0.000274235Z" fill="#394B59"/>
<path d="M141.445 1.91695C141.458 1.5873 141.611 1.27411 141.874 1.04089C142.137 0.807663 142.491 0.671859 142.863 0.661011H151.816C152.188 0.671859 152.542 0.807663 152.805 1.04089C153.068 1.27411 153.222 1.5873 153.234 1.91695V45.6767C153.222 46.0063 153.068 46.3195 152.805 46.5527C152.542 46.786 152.188 46.9218 151.816 46.9326H142.863C142.491 46.9218 142.137 46.786 141.874 46.5527C141.611 46.3195 141.458 46.0063 141.445 45.6767V1.91695Z" fill="#394B59"/>
<path d="M180.913 1.18992C180.929 0.867286 181.085 0.562659 181.35 0.340565C181.614 0.118472 181.966 -0.00364415 182.331 8.28698e-05H184.196L213.966 25.3834H214.041V1.91705C214.041 1.58395 214.19 1.2645 214.456 1.02896C214.722 0.793428 215.082 0.661106 215.458 0.661106H224.412C224.784 0.671954 225.137 0.807758 225.401 1.04098C225.664 1.27421 225.817 1.5874 225.829 1.91705V46.4133C225.814 46.736 225.657 47.0406 225.393 47.2627C225.128 47.4848 224.776 47.6069 224.412 47.6032H223.218C222.87 47.5633 222.537 47.4499 222.248 47.2727L192.776 21.0206H192.702V45.6768C192.702 45.8417 192.665 46.005 192.594 46.1574C192.523 46.3098 192.418 46.4482 192.287 46.5648C192.155 46.6815 191.999 46.774 191.827 46.8371C191.655 46.9002 191.47 46.9327 191.284 46.9327H182.405C182.033 46.9219 181.68 46.7861 181.416 46.5528C181.153 46.3196 181 46.0064 180.988 45.6768L180.913 1.18992Z" fill="#394B59"/>
<path d="M260.3 10.378H249.641C249.265 10.378 248.905 10.2457 248.639 10.0102C248.373 9.77465 248.224 9.4552 248.224 9.1221V1.91695C248.224 1.58386 248.373 1.2644 248.639 1.02887C248.905 0.793333 249.265 0.661011 249.641 0.661011H282.769C283.145 0.661011 283.506 0.793333 283.771 1.02887C284.037 1.2644 284.187 1.58386 284.187 1.91695V9.1221C284.187 9.4552 284.037 9.77465 283.771 10.0102C283.506 10.2457 283.145 10.378 282.769 10.378H272.099V45.6767C272.087 46.0063 271.934 46.3195 271.671 46.5527C271.407 46.786 271.054 46.9218 270.682 46.9326H261.728C261.356 46.9218 261.003 46.786 260.74 46.5527C260.476 46.3195 260.323 46.0063 260.311 45.6767L260.3 10.378Z" fill="#394B59"/>
<path d="M297.159 45.214L320.512 0.727126C320.634 0.5169 320.817 0.338954 321.041 0.211277C321.266 0.0836006 321.525 0.0107186 321.791 0H322.537C322.802 0.0123425 323.058 0.085983 323.281 0.213573C323.504 0.341162 323.685 0.518239 323.806 0.727126L347.159 45.214C347.607 46.0733 347.01 46.9326 345.88 46.9326H337.598C336.255 46.9326 335.658 46.536 334.987 45.2801L332.292 40.058H311.998L309.312 45.3462C309.107 45.8261 308.738 46.2371 308.256 46.5217C307.775 46.8062 307.204 46.9499 306.626 46.9326H298.419C297.308 46.9326 296.711 46.0733 297.159 45.214ZM327.816 31.0681L322.154 20.1612H322.079L316.483 31.0681H327.816Z" fill="#394B59"/>
<path d="M368.187 1.91695C368.2 1.5873 368.353 1.27411 368.616 1.04089C368.879 0.807663 369.233 0.671859 369.605 0.661011H378.558C378.93 0.671859 379.284 0.807663 379.547 1.04089C379.81 1.27411 379.964 1.5873 379.976 1.91695V45.6767C379.964 46.0063 379.81 46.3195 379.547 46.5527C379.284 46.786 378.93 46.9218 378.558 46.9326H369.605C369.233 46.9218 368.879 46.786 368.616 46.5527C368.353 46.3195 368.2 46.0063 368.187 45.6767V1.91695Z" fill="#394B59"/>
<path d="M1.98047 76V58.9375H7.55859C9.41016 58.9375 10.8008 59.3203 11.7305 60.0859C12.668 60.8516 13.1367 61.9844 13.1367 63.4844C13.1367 64.2812 12.9102 64.9883 12.457 65.6055C12.0039 66.2148 11.3867 66.6875 10.6055 67.0234C11.5273 67.2812 12.2539 67.7734 12.7852 68.5C13.3242 69.2188 13.5938 70.0781 13.5938 71.0781C13.5938 72.6094 13.0977 73.8125 12.1055 74.6875C11.1133 75.5625 9.71094 76 7.89844 76H1.98047ZM4.23047 68.0195V74.1602H7.94531C8.99219 74.1602 9.81641 73.8906 10.418 73.3516C11.0273 72.8047 11.332 72.0547 11.332 71.1016C11.332 69.0469 10.2148 68.0195 7.98047 68.0195H4.23047ZM4.23047 66.2148H7.62891C8.61328 66.2148 9.39844 65.9688 9.98438 65.4766C10.5781 64.9844 10.875 64.3164 10.875 63.4727C10.875 62.5352 10.6016 61.8555 10.0547 61.4336C9.50781 61.0039 8.67578 60.7891 7.55859 60.7891H4.23047V66.2148Z" fill="#394B59"/>
<path d="M24.4219 74.7461C23.5781 75.7383 22.3398 76.2344 20.707 76.2344C19.3555 76.2344 18.3242 75.8438 17.6133 75.0625C16.9102 74.2734 16.5547 73.1094 16.5469 71.5703V63.3203H18.7148V71.5117C18.7148 73.4336 19.4961 74.3945 21.0586 74.3945C22.7148 74.3945 23.8164 73.7773 24.3633 72.543V63.3203H26.5312V76H24.4688L24.4219 74.7461Z" fill="#394B59"/>
<path d="M37.2188 72.6367C37.2188 72.0508 36.9961 71.5977 36.5508 71.2773C36.1133 70.9492 35.3438 70.668 34.2422 70.4336C33.1484 70.1992 32.2773 69.918 31.6289 69.5898C30.9883 69.2617 30.5117 68.8711 30.1992 68.418C29.8945 67.9648 29.7422 67.4258 29.7422 66.8008C29.7422 65.7617 30.1797 64.8828 31.0547 64.1641C31.9375 63.4453 33.0625 63.0859 34.4297 63.0859C35.8672 63.0859 37.0312 63.457 37.9219 64.1992C38.8203 64.9414 39.2695 65.8906 39.2695 67.0469H37.0898C37.0898 66.4531 36.8359 65.9414 36.3281 65.5117C35.8281 65.082 35.1953 64.8672 34.4297 64.8672C33.6406 64.8672 33.0234 65.0391 32.5781 65.3828C32.1328 65.7266 31.9102 66.1758 31.9102 66.7305C31.9102 67.2539 32.1172 67.6484 32.5312 67.9141C32.9453 68.1797 33.6914 68.4336 34.7695 68.6758C35.8555 68.918 36.7344 69.207 37.4062 69.543C38.0781 69.8789 38.5742 70.2852 38.8945 70.7617C39.2227 71.2305 39.3867 71.8047 39.3867 72.4844C39.3867 73.6172 38.9336 74.5273 38.0273 75.2148C37.1211 75.8945 35.9453 76.2344 34.5 76.2344C33.4844 76.2344 32.5859 76.0547 31.8047 75.6953C31.0234 75.3359 30.4102 74.8359 29.9648 74.1953C29.5273 73.5469 29.3086 72.8477 29.3086 72.0977H31.4766C31.5156 72.8242 31.8047 73.4023 32.3438 73.832C32.8906 74.2539 33.6094 74.4648 34.5 74.4648C35.3203 74.4648 35.9766 74.3008 36.4688 73.9727C36.9688 73.6367 37.2188 73.1914 37.2188 72.6367Z" fill="#394B59"/>
<path d="M44.5664 76H42.3984V63.3203H44.5664V76ZM42.2227 59.957C42.2227 59.6055 42.3281 59.3086 42.5391 59.0664C42.7578 58.8242 43.0781 58.7031 43.5 58.7031C43.9219 58.7031 44.2422 58.8242 44.4609 59.0664C44.6797 59.3086 44.7891 59.6055 44.7891 59.957C44.7891 60.3086 44.6797 60.6016 44.4609 60.8359C44.2422 61.0703 43.9219 61.1875 43.5 61.1875C43.0781 61.1875 42.7578 61.0703 42.5391 60.8359C42.3281 60.6016 42.2227 60.3086 42.2227 59.957Z" fill="#394B59"/>
<path d="M50.0977 63.3203L50.168 64.9141C51.1367 63.6953 52.4023 63.0859 53.9648 63.0859C56.6445 63.0859 57.9961 64.5977 58.0195 67.6211V76H55.8516V67.6094C55.8438 66.6953 55.6328 66.0195 55.2188 65.582C54.8125 65.1445 54.1758 64.9258 53.3086 64.9258C52.6055 64.9258 51.9883 65.1133 51.457 65.4883C50.9258 65.8633 50.5117 66.3555 50.2148 66.9648V76H48.0469V63.3203H50.0977Z" fill="#394B59"/>
<path d="M66.5508 76.2344C64.832 76.2344 63.4336 75.6719 62.3555 74.5469C61.2773 73.4141 60.7383 71.9023 60.7383 70.0117V69.6133C60.7383 68.3555 60.9766 67.2344 61.4531 66.25C61.9375 65.2578 62.6094 64.4844 63.4688 63.9297C64.3359 63.3672 65.2734 63.0859 66.2812 63.0859C67.9297 63.0859 69.2109 63.6289 70.125 64.7148C71.0391 65.8008 71.4961 67.3555 71.4961 69.3789V70.2812H62.9062C62.9375 71.5312 63.3008 72.543 63.9961 73.3164C64.6992 74.082 65.5898 74.4648 66.668 74.4648C67.4336 74.4648 68.082 74.3086 68.6133 73.9961C69.1445 73.6836 69.6094 73.2695 70.0078 72.7539L71.332 73.7852C70.2695 75.418 68.6758 76.2344 66.5508 76.2344ZM66.2812 64.8672C65.4062 64.8672 64.6719 65.1875 64.0781 65.8281C63.4844 66.4609 63.1172 67.3516 62.9766 68.5H69.3281V68.3359C69.2656 67.2344 68.9688 66.3828 68.4375 65.7812C67.9062 65.1719 67.1875 64.8672 66.2812 64.8672Z" fill="#394B59"/>
<path d="M81.3984 72.6367C81.3984 72.0508 81.1758 71.5977 80.7305 71.2773C80.293 70.9492 79.5234 70.668 78.4219 70.4336C77.3281 70.1992 76.457 69.918 75.8086 69.5898C75.168 69.2617 74.6914 68.8711 74.3789 68.418C74.0742 67.9648 73.9219 67.4258 73.9219 66.8008C73.9219 65.7617 74.3594 64.8828 75.2344 64.1641C76.1172 63.4453 77.2422 63.0859 78.6094 63.0859C80.0469 63.0859 81.2109 63.457 82.1016 64.1992C83 64.9414 83.4492 65.8906 83.4492 67.0469H81.2695C81.2695 66.4531 81.0156 65.9414 80.5078 65.5117C80.0078 65.082 79.375 64.8672 78.6094 64.8672C77.8203 64.8672 77.2031 65.0391 76.7578 65.3828C76.3125 65.7266 76.0898 66.1758 76.0898 66.7305C76.0898 67.2539 76.2969 67.6484 76.7109 67.9141C77.125 68.1797 77.8711 68.4336 78.9492 68.6758C80.0352 68.918 80.9141 69.207 81.5859 69.543C82.2578 69.8789 82.7539 70.2852 83.0742 70.7617C83.4023 71.2305 83.5664 71.8047 83.5664 72.4844C83.5664 73.6172 83.1133 74.5273 82.207 75.2148C81.3008 75.8945 80.125 76.2344 78.6797 76.2344C77.6641 76.2344 76.7656 76.0547 75.9844 75.6953C75.2031 75.3359 74.5898 74.8359 74.1445 74.1953C73.707 73.5469 73.4883 72.8477 73.4883 72.0977H75.6562C75.6953 72.8242 75.9844 73.4023 76.5234 73.832C77.0703 74.2539 77.7891 74.4648 78.6797 74.4648C79.5 74.4648 80.1562 74.3008 80.6484 73.9727C81.1484 73.6367 81.3984 73.1914 81.3984 72.6367Z" fill="#394B59"/>
<path d="M93.7734 72.6367C93.7734 72.0508 93.5508 71.5977 93.1055 71.2773C92.668 70.9492 91.8984 70.668 90.7969 70.4336C89.7031 70.1992 88.832 69.918 88.1836 69.5898C87.543 69.2617 87.0664 68.8711 86.7539 68.418C86.4492 67.9648 86.2969 67.4258 86.2969 66.8008C86.2969 65.7617 86.7344 64.8828 87.6094 64.1641C88.4922 63.4453 89.6172 63.0859 90.9844 63.0859C92.4219 63.0859 93.5859 63.457 94.4766 64.1992C95.375 64.9414 95.8242 65.8906 95.8242 67.0469H93.6445C93.6445 66.4531 93.3906 65.9414 92.8828 65.5117C92.3828 65.082 91.75 64.8672 90.9844 64.8672C90.1953 64.8672 89.5781 65.0391 89.1328 65.3828C88.6875 65.7266 88.4648 66.1758 88.4648 66.7305C88.4648 67.2539 88.6719 67.6484 89.0859 67.9141C89.5 68.1797 90.2461 68.4336 91.3242 68.6758C92.4102 68.918 93.2891 69.207 93.9609 69.543C94.6328 69.8789 95.1289 70.2852 95.4492 70.7617C95.7773 71.2305 95.9414 71.8047 95.9414 72.4844C95.9414 73.6172 95.4883 74.5273 94.582 75.2148C93.6758 75.8945 92.5 76.2344 91.0547 76.2344C90.0391 76.2344 89.1406 76.0547 88.3594 75.6953C87.5781 75.3359 86.9648 74.8359 86.5195 74.1953C86.082 73.5469 85.8633 72.8477 85.8633 72.0977H88.0312C88.0703 72.8242 88.3594 73.4023 88.8984 73.832C89.4453 74.2539 90.1641 74.4648 91.0547 74.4648C91.875 74.4648 92.5312 74.3008 93.0234 73.9727C93.5234 73.6367 93.7734 73.1914 93.7734 72.6367Z" fill="#394B59"/>
<path d="M114.48 71.5469H107.332L105.727 76H103.406L109.922 58.9375H111.891L118.418 76H116.109L114.48 71.5469ZM108.012 69.6953H113.812L110.906 61.7148L108.012 69.6953Z" fill="#394B59"/>
<path d="M119.848 69.5547C119.848 67.6094 120.309 66.0469 121.23 64.8672C122.152 63.6797 123.359 63.0859 124.852 63.0859C126.336 63.0859 127.512 63.5938 128.379 64.6094V58H130.547V76H128.555L128.449 74.6406C127.582 75.7031 126.375 76.2344 124.828 76.2344C123.359 76.2344 122.16 75.6328 121.23 74.4297C120.309 73.2266 119.848 71.6562 119.848 69.7188V69.5547ZM122.016 69.8008C122.016 71.2383 122.312 72.3633 122.906 73.1758C123.5 73.9883 124.32 74.3945 125.367 74.3945C126.742 74.3945 127.746 73.7773 128.379 72.543V66.7188C127.73 65.5234 126.734 64.9258 125.391 64.9258C124.328 64.9258 123.5 65.3359 122.906 66.1562C122.312 66.9766 122.016 68.1914 122.016 69.8008Z" fill="#394B59"/>
<path d="M135.961 63.3203L136.02 64.7266C136.949 63.6328 138.203 63.0859 139.781 63.0859C141.555 63.0859 142.762 63.7656 143.402 65.125C143.824 64.5156 144.371 64.0234 145.043 63.6484C145.723 63.2734 146.523 63.0859 147.445 63.0859C150.227 63.0859 151.641 64.5586 151.688 67.5039V76H149.52V67.6328C149.52 66.7266 149.312 66.0508 148.898 65.6055C148.484 65.1523 147.789 64.9258 146.812 64.9258C146.008 64.9258 145.34 65.168 144.809 65.6523C144.277 66.1289 143.969 66.7734 143.883 67.5859V76H141.703V67.6914C141.703 65.8477 140.801 64.9258 138.996 64.9258C137.574 64.9258 136.602 65.5312 136.078 66.7422V76H133.91V63.3203H135.961Z" fill="#394B59"/>
<path d="M157.324 76H155.156V63.3203H157.324V76ZM154.98 59.957C154.98 59.6055 155.086 59.3086 155.297 59.0664C155.516 58.8242 155.836 58.7031 156.258 58.7031C156.68 58.7031 157 58.8242 157.219 59.0664C157.438 59.3086 157.547 59.6055 157.547 59.957C157.547 60.3086 157.438 60.6016 157.219 60.8359C157 61.0703 156.68 61.1875 156.258 61.1875C155.836 61.1875 155.516 61.0703 155.297 60.8359C155.086 60.6016 154.98 60.3086 154.98 59.957Z" fill="#394B59"/>
<path d="M162.855 63.3203L162.926 64.9141C163.895 63.6953 165.16 63.0859 166.723 63.0859C169.402 63.0859 170.754 64.5977 170.777 67.6211V76H168.609V67.6094C168.602 66.6953 168.391 66.0195 167.977 65.582C167.57 65.1445 166.934 64.9258 166.066 64.9258C165.363 64.9258 164.746 65.1133 164.215 65.4883C163.684 65.8633 163.27 66.3555 162.973 66.9648V76H160.805V63.3203H162.855Z" fill="#394B59"/>
</svg>
