<svg width="350" height="148" viewBox="0 0 350 148" fill="none" xmlns="http://www.w3.org/2000/svg">
<path d="M146.529 79.9645C160.996 79.9645 214.043 91.6392 171.177 133.488L214.579 102.891C214.579 102.891 229.85 93.5146 223.42 84.6735C216.99 75.8324 132.062 79.9645 146.529 79.9645Z" fill="#85CE38"/>
<path d="M136.348 86.9303C150.816 86.9303 203.862 98.6051 160.996 140.454L204.398 109.857C204.398 109.857 219.669 100.48 213.239 91.6394C206.809 82.7983 121.881 86.9303 136.348 86.9303Z" fill="#CE383A"/>
<path d="M126.656 94.0031C141.123 94.0031 194.169 105.678 151.303 147.527L194.705 116.93C194.705 116.93 209.976 107.553 203.546 98.7121C197.116 89.871 112.188 94.0031 126.656 94.0031Z" fill="white"/>
<path d="M38.6875 67H37V44.4375H7.9375V67H6.25V21.5H7.9375V42.75H37V21.5H38.6875V67ZM62.4688 67.625C59.7396 67.625 57.2292 66.8958 54.9375 65.4375C52.6667 63.9583 50.8854 61.9375 49.5938 59.375C48.3021 56.8125 47.6562 53.9688 47.6562 50.8438V49.4375C47.6562 46.3125 48.2812 43.4479 49.5312 40.8438C50.7812 38.2396 52.5 36.2083 54.6875 34.75C56.875 33.2917 59.2604 32.5625 61.8438 32.5625C65.6146 32.5625 68.6979 33.9062 71.0938 36.5938C73.4896 39.2812 74.6875 42.8125 74.6875 47.1875V48.9688H49.3438V50.8125C49.3438 53.5625 49.9167 56.1146 51.0625 58.4688C52.2292 60.8021 53.8229 62.6354 55.8438 63.9688C57.8854 65.3021 60.0938 65.9688 62.4688 65.9688C64.7396 65.9688 66.6667 65.5938 68.25 64.8438C69.8542 64.0729 71.2708 62.8958 72.5 61.3125L73.6875 62.1562C71.1667 65.8021 67.4271 67.625 62.4688 67.625ZM61.8438 34.25C58.5521 34.25 55.7604 35.4792 53.4688 37.9375C51.1771 40.375 49.8333 43.4896 49.4375 47.2812H73V46.875C73 44.5833 72.5104 42.4583 71.5312 40.5C70.5729 38.5208 69.2396 36.9896 67.5312 35.9062C65.8438 34.8021 63.9479 34.25 61.8438 34.25ZM97.4688 34.4062L95.2812 34.2188C92.4062 34.2188 90 35.1562 88.0625 37.0312C86.125 38.8854 84.8542 41.4896 84.25 44.8438V67H82.5625V33.1875H84.25V40.2188C85.1667 37.8646 86.5417 36 88.375 34.625C90.2083 33.25 92.5104 32.5625 95.2812 32.5625C96.2604 32.5625 97.0521 32.6771 97.6562 32.9062L97.4688 34.4062ZM128.188 67H126.5V44.2812C126.479 40.8854 125.729 38.3646 124.25 36.7188C122.792 35.0521 120.458 34.2188 117.25 34.2188C113.542 34.2188 110.51 35.8542 108.156 39.125C106.76 41.0833 105.833 43.25 105.375 45.625V67H103.656V33.1875H105.375V41.1875C106.521 38.4375 108.156 36.3125 110.281 34.8125C112.406 33.3125 114.76 32.5625 117.344 32.5625C120.177 32.5625 122.49 33.1875 124.281 34.4375C126.094 35.6875 127.281 37.7292 127.844 40.5625C128.844 38.125 130.469 36.1875 132.719 34.75C134.969 33.2917 137.49 32.5625 140.281 32.5625C143.927 32.5625 146.635 33.5938 148.406 35.6562C150.198 37.7188 151.104 40.8125 151.125 44.9375V67H149.438V45.0625C149.438 41.3542 148.688 38.6146 147.188 36.8438C145.708 35.0521 143.375 34.1771 140.188 34.2188C136.083 34.2812 132.833 35.9167 130.438 39.125C129.062 40.9792 128.312 42.7708 128.188 44.5V67ZM173.531 67.625C170.802 67.625 168.292 66.8958 166 65.4375C163.729 63.9583 161.948 61.9375 160.656 59.375C159.365 56.8125 158.719 53.9688 158.719 50.8438V49.4375C158.719 46.3125 159.344 43.4479 160.594 40.8438C161.844 38.2396 163.562 36.2083 165.75 34.75C167.938 33.2917 170.323 32.5625 172.906 32.5625C176.677 32.5625 179.76 33.9062 182.156 36.5938C184.552 39.2812 185.75 42.8125 185.75 47.1875V48.9688H160.406V50.8125C160.406 53.5625 160.979 56.1146 162.125 58.4688C163.292 60.8021 164.885 62.6354 166.906 63.9688C168.948 65.3021 171.156 65.9688 173.531 65.9688C175.802 65.9688 177.729 65.5938 179.312 64.8438C180.917 64.0729 182.333 62.8958 183.562 61.3125L184.75 62.1562C182.229 65.8021 178.49 67.625 173.531 67.625ZM172.906 34.25C169.615 34.25 166.823 35.4792 164.531 37.9375C162.24 40.375 160.896 43.4896 160.5 47.2812H184.062V46.875C184.062 44.5833 183.573 42.4583 182.594 40.5C181.635 38.5208 180.302 36.9896 178.594 35.9062C176.906 34.8021 175.01 34.25 172.906 34.25ZM214.469 58.7188C214.469 54.6146 210.969 51.8229 203.969 50.3438C199.76 49.4479 196.833 48.3021 195.188 46.9062C193.542 45.4896 192.719 43.5521 192.719 41.0938C192.719 38.6146 193.76 36.5729 195.844 34.9688C197.948 33.3646 200.677 32.5625 204.031 32.5625C207.677 32.5625 210.604 33.4375 212.812 35.1875C215.021 36.9167 216.125 39.2604 216.125 42.2188H214.406C214.406 39.9479 213.448 38.0521 211.531 36.5312C209.615 35.0104 207.115 34.25 204.031 34.25C201.073 34.25 198.729 34.8958 197 36.1875C195.271 37.4792 194.406 39.0938 194.406 41.0312C194.406 42.5521 194.729 43.75 195.375 44.625C196.021 45.4792 197.073 46.2604 198.531 46.9688C199.99 47.6562 202.115 48.3229 204.906 48.9688C207.698 49.6146 209.906 50.375 211.531 51.25C213.156 52.125 214.333 53.1667 215.062 54.375C215.792 55.5625 216.156 57.0208 216.156 58.75C216.156 61.4167 215.062 63.5625 212.875 65.1875C210.688 66.8125 207.823 67.625 204.281 67.625C200.49 67.625 197.427 66.7708 195.094 65.0625C192.781 63.3333 191.625 61.1146 191.625 58.4062H193.312C193.479 60.7812 194.521 62.6354 196.438 63.9688C198.375 65.2812 200.99 65.9375 204.281 65.9375C207.302 65.9375 209.75 65.2396 211.625 63.8438C213.521 62.4271 214.469 60.7188 214.469 58.7188ZM225.293 65.2773C225.293 64.7383 225.48 64.2812 225.855 63.9062C226.23 63.5078 226.688 63.3086 227.227 63.3086C227.766 63.3086 228.223 63.5078 228.598 63.9062C228.996 64.2812 229.195 64.7383 229.195 65.2773C229.195 65.8164 228.996 66.2734 228.598 66.6484C228.223 67.0234 227.766 67.2109 227.227 67.2109C226.688 67.2109 226.23 67.0234 225.855 66.6484C225.48 66.2734 225.293 65.8164 225.293 65.2773ZM245.657 67.4395C243.753 67.4395 242.112 66.9048 240.735 65.8354C239.358 64.7661 238.362 63.3086 237.747 61.4629C237.146 59.6025 236.993 57.6543 237.286 55.6182L237.461 54.5195C237.813 52.3809 238.56 50.3813 239.703 48.521C240.86 46.6606 242.229 45.2397 243.812 44.2583C245.394 43.2769 247.085 42.7861 248.887 42.7861C251.29 42.7861 253.172 43.6724 254.534 45.4448C255.896 47.2173 256.475 49.4878 256.27 52.2563L256.204 52.9375L256.006 54.3218H238.736L238.494 55.6182C238.289 56.8486 238.282 58.0938 238.472 59.3535C238.794 61.4482 239.593 63.1255 240.867 64.3853C242.156 65.6304 243.746 66.2603 245.635 66.2749C248.375 66.3042 250.843 65.2202 253.04 63.0229L253.831 63.6382C251.663 66.1724 248.938 67.4395 245.657 67.4395ZM248.887 43.9727C246.631 43.9727 244.61 44.8223 242.823 46.5215C241.05 48.2061 239.732 50.4106 238.868 53.1353H254.908L254.974 52.8496C255.164 51.7949 255.179 50.7402 255.018 49.6855C254.754 47.957 254.065 46.5728 252.952 45.5327C251.854 44.4927 250.499 43.9727 248.887 43.9727ZM268.201 53.7505L277.21 43.2476L278.726 43.2695L268.794 54.8931L275.452 67H274.046L267.981 55.8599L258.445 67H256.929L267.388 54.7173L261.06 43.2036H262.488L268.201 53.7505ZM288.548 67.4395C286.644 67.4395 285.003 66.9048 283.626 65.8354C282.249 64.7661 281.253 63.3086 280.638 61.4629C280.037 59.6025 279.883 57.6543 280.176 55.6182L280.352 54.5195C280.704 52.3809 281.451 50.3813 282.593 48.521C283.75 46.6606 285.12 45.2397 286.702 44.2583C288.284 43.2769 289.976 42.7861 291.778 42.7861C294.18 42.7861 296.062 43.6724 297.425 45.4448C298.787 47.2173 299.366 49.4878 299.161 52.2563L299.095 52.9375L298.897 54.3218H281.626L281.385 55.6182C281.18 56.8486 281.172 58.0938 281.363 59.3535C281.685 61.4482 282.483 63.1255 283.758 64.3853C285.047 65.6304 286.636 66.2603 288.526 66.2749C291.265 66.3042 293.733 65.2202 295.931 63.0229L296.722 63.6382C294.554 66.1724 291.829 67.4395 288.548 67.4395ZM291.778 43.9727C289.522 43.9727 287.5 44.8223 285.713 46.5215C283.941 48.2061 282.623 50.4106 281.758 53.1353H297.798L297.864 52.8496C298.055 51.7949 298.069 50.7402 297.908 49.6855C297.645 47.957 296.956 46.5728 295.843 45.5327C294.744 44.4927 293.389 43.9727 291.778 43.9727ZM310.169 66.2529C312.249 66.2529 314.051 65.6597 315.574 64.4731C317.112 63.2866 318.138 61.7339 318.65 59.8149H319.837C319.31 62.0854 318.16 63.9238 316.387 65.3301C314.615 66.7363 312.549 67.4395 310.191 67.4395C308.008 67.4395 306.236 66.7656 304.874 65.418C303.526 64.0557 302.713 62.1733 302.435 59.771C302.273 58.3794 302.295 56.9805 302.5 55.5742L302.632 54.6514C303.013 52.3223 303.738 50.2349 304.808 48.3892C305.892 46.5435 307.195 45.1519 308.719 44.2144C310.257 43.2622 311.949 42.7861 313.794 42.7861C316.182 42.7861 318.057 43.5625 319.419 45.1152C320.796 46.668 321.397 48.6528 321.221 51.0698H320.035C320.225 48.9604 319.734 47.2539 318.562 45.9502C317.405 44.6318 315.823 43.9727 313.816 43.9727C311.048 43.9727 308.748 45.1079 306.917 47.3784C305.086 49.6343 303.973 52.6592 303.577 56.4531L303.489 58.0571C303.489 60.6353 304.068 62.6494 305.225 64.0996C306.382 65.5352 308.03 66.2529 310.169 66.2529ZM338.646 31.3384L338.931 32.3271C337.144 33.4844 335.481 35.125 333.943 37.249C332.405 39.3584 331.072 41.8926 329.944 44.8516C328.816 47.7959 327.996 50.8574 327.483 54.0361L327.374 54.6074C326.993 57.1562 326.824 59.6611 326.868 62.1221C326.897 65.4619 327.359 68.3623 328.252 70.8232C329.161 73.2842 330.435 75.1445 332.076 76.4043L331.548 77.3052C329.717 75.9282 328.304 73.9946 327.308 71.5044C326.326 69.0142 325.792 66.0186 325.704 62.5176C325.601 59.0166 325.945 55.3765 326.736 51.5972C327.542 47.8032 328.721 44.3242 330.274 41.1602C332.5 36.6191 335.291 33.3452 338.646 31.3384ZM333.636 77.3271L333.35 76.3384C336.177 74.478 338.594 71.585 340.601 67.6592C342.623 63.7334 344.021 59.3828 344.798 54.6074L344.908 54.0361C345.289 51.4873 345.464 48.9824 345.435 46.5215C345.362 43.0645 344.878 40.1421 343.985 37.7544C343.091 35.3521 341.832 33.521 340.206 32.2612L340.733 31.3604C342.491 32.6787 343.875 34.605 344.886 37.1392C345.896 39.6733 346.453 42.6909 346.556 46.1919C346.688 50.3374 346.197 54.6221 345.083 59.0459C343.985 63.4551 342.447 67.2197 340.469 70.3398C338.506 73.4746 336.229 75.8037 333.636 77.3271Z" fill="white"/>
</svg>
